<?xml version="1.0" standalone="no"?>
<!DOCTYPE svg PUBLIC "-//W3C//DTD SVG 20010904//EN"
 "http://www.w3.org/TR/2001/REC-SVG-20010904/DTD/svg10.dtd">
<svg version="1.0" xmlns="http://www.w3.org/2000/svg"
 width="209.000000pt" height="211.000000pt" viewBox="0 0 209.000000 211.000000"
 preserveAspectRatio="xMidYMid meet">

<g transform="translate(0.000000,211.000000) scale(0.100000,-0.100000)"
fill="#000000" stroke="none">
<path d="M931 1413 c-12 -26 -12 -27 6 -11 15 14 25 15 64 6 30 -7 60 -7 85
-1 33 8 44 6 73 -14 19 -13 39 -23 45 -23 6 0 2 5 -9 11 -11 6 -30 22 -41 36
-20 24 -24 25 -59 13 -36 -12 -102 -10 -136 4 -11 5 -19 -2 -28 -21z"/>
<path d="M944 1266 c3 -32 10 -64 16 -70 9 -8 10 2 5 44 -10 79 -28 100 -21
26z"/>
<path d="M1045 1288 c-4 -19 -2 -50 3 -69 9 -34 9 -34 17 24 5 38 4 62 -3 69
-7 7 -13 0 -17 -24z"/>
<path d="M1167 1304 c-12 -43 -18 -119 -9 -109 16 17 34 107 24 117 -7 7 -12
3 -15 -8z"/>
<path d="M890 1056 c0 -49 4 -65 16 -70 9 -3 81 -6 160 -6 l144 0 0 70 0 70
-160 0 -160 0 0 -64z"/>
<path d="M590 1067 c0 -2 21 -18 46 -37 57 -41 46 -66 -12 -26 -54 36 -67 33
-16 -5 23 -17 42 -35 42 -40 0 -13 -7 -11 -58 17 l-47 26 45 -40 c55 -49 47
-64 -15 -27 -26 15 -49 25 -51 22 -8 -7 87 -87 128 -108 42 -21 85 -24 122 -8
22 10 34 4 124 -60 56 -39 103 -75 106 -79 3 -5 -36 -35 -87 -68 -51 -32 -109
-74 -129 -93 -40 -35 -50 -74 -22 -85 28 -11 80 21 178 110 54 49 103 90 110
92 7 2 60 -42 118 -97 58 -54 115 -104 127 -110 30 -17 61 -5 61 23 0 37 -30
66 -148 146 l-111 75 22 21 c12 12 56 46 97 77 68 49 78 53 95 41 22 -16 63
-18 99 -4 62 23 146 138 146 199 0 24 -5 32 -25 37 -88 22 -255 -88 -255 -168
0 -31 -6 -37 -108 -101 -60 -37 -111 -67 -114 -67 -4 0 -59 33 -124 73 -103
64 -119 78 -127 108 -5 19 -20 46 -34 61 -36 38 -183 114 -183 95z"/>
</g>
</svg>
